<mxfile host="app.diagrams.net" modified="2022-05-17T12:57:28.083Z" agent="5.0 (X11; Linux x86_64) AppleWebKit/537.36 (KHTML, like Gecko) Chrome/101.0.4951.54 Safari/537.36" etag="cXFtJ2sA4Nw5_UXl_h47" version="18.0.6" type="github">
  <diagram id="C5RBs43oDa-KdzZeNtuy" name="Page-1">
    <mxGraphModel dx="1034" dy="933" grid="1" gridSize="10" guides="1" tooltips="1" connect="1" arrows="1" fold="1" page="1" pageScale="1" pageWidth="827" pageHeight="1169" math="0" shadow="0">
      <root>
        <mxCell id="WIyWlLk6GJQsqaUBKTNV-0" />
        <mxCell id="WIyWlLk6GJQsqaUBKTNV-1" parent="WIyWlLk6GJQsqaUBKTNV-0" />
        <mxCell id="nji6fuR_Czli_-WdUarw-7" value="" style="edgeStyle=orthogonalEdgeStyle;rounded=0;orthogonalLoop=1;jettySize=auto;html=1;" edge="1" parent="WIyWlLk6GJQsqaUBKTNV-1" source="nji6fuR_Czli_-WdUarw-1" target="nji6fuR_Czli_-WdUarw-6">
          <mxGeometry relative="1" as="geometry" />
        </mxCell>
        <mxCell id="nji6fuR_Czli_-WdUarw-1" value="Privilegies Schema" style="swimlane;fontStyle=0;childLayout=stackLayout;horizontal=1;startSize=30;horizontalStack=0;resizeParent=1;resizeParentMax=0;resizeLast=0;collapsible=1;marginBottom=0;" vertex="1" parent="WIyWlLk6GJQsqaUBKTNV-1">
          <mxGeometry x="40" y="40" width="270" height="120" as="geometry" />
        </mxCell>
        <mxCell id="nji6fuR_Czli_-WdUarw-2" value="Name - String" style="text;strokeColor=none;fillColor=none;align=left;verticalAlign=middle;spacingLeft=4;spacingRight=4;overflow=hidden;points=[[0,0.5],[1,0.5]];portConstraint=eastwest;rotatable=0;fontColor=#330000;" vertex="1" parent="nji6fuR_Czli_-WdUarw-1">
          <mxGeometry y="30" width="270" height="30" as="geometry" />
        </mxCell>
        <mxCell id="nji6fuR_Czli_-WdUarw-9" value="Alias - String" style="text;strokeColor=none;fillColor=none;align=left;verticalAlign=middle;spacingLeft=4;spacingRight=4;overflow=hidden;points=[[0,0.5],[1,0.5]];portConstraint=eastwest;rotatable=0;" vertex="1" parent="nji6fuR_Czli_-WdUarw-1">
          <mxGeometry y="60" width="270" height="30" as="geometry" />
        </mxCell>
        <mxCell id="nji6fuR_Czli_-WdUarw-3" value="Group? - String" style="text;strokeColor=none;fillColor=none;align=left;verticalAlign=middle;spacingLeft=4;spacingRight=4;overflow=hidden;points=[[0,0.5],[1,0.5]];portConstraint=eastwest;rotatable=0;" vertex="1" parent="nji6fuR_Czli_-WdUarw-1">
          <mxGeometry y="90" width="270" height="30" as="geometry" />
        </mxCell>
        <mxCell id="nji6fuR_Czli_-WdUarw-6" value="Routers&lt;br&gt;Database&lt;br&gt;Users&lt;br&gt;Windows&lt;br&gt;Tasks" style="shape=process;whiteSpace=wrap;html=1;backgroundOutline=1;fontStyle=0;startSize=30;" vertex="1" parent="WIyWlLk6GJQsqaUBKTNV-1">
          <mxGeometry x="430" y="60" width="160" height="80" as="geometry" />
        </mxCell>
        <mxCell id="nji6fuR_Czli_-WdUarw-8" value="Connections" style="text;html=1;strokeColor=none;fillColor=none;align=center;verticalAlign=middle;whiteSpace=wrap;rounded=0;" vertex="1" parent="WIyWlLk6GJQsqaUBKTNV-1">
          <mxGeometry x="340" y="70" width="60" height="30" as="geometry" />
        </mxCell>
        <mxCell id="nji6fuR_Czli_-WdUarw-19" value="" style="edgeStyle=orthogonalEdgeStyle;rounded=0;orthogonalLoop=1;jettySize=auto;html=1;fontColor=#330000;" edge="1" parent="WIyWlLk6GJQsqaUBKTNV-1" source="nji6fuR_Czli_-WdUarw-11" target="nji6fuR_Czli_-WdUarw-18">
          <mxGeometry relative="1" as="geometry" />
        </mxCell>
        <mxCell id="nji6fuR_Czli_-WdUarw-11" value="Anyone" style="shape=umlActor;verticalLabelPosition=bottom;verticalAlign=top;html=1;outlineConnect=0;fontColor=#330000;" vertex="1" parent="WIyWlLk6GJQsqaUBKTNV-1">
          <mxGeometry x="40" y="220" width="30" height="60" as="geometry" />
        </mxCell>
        <mxCell id="nji6fuR_Czli_-WdUarw-15" value="Show window with content" style="shape=process;whiteSpace=wrap;html=1;backgroundOutline=1;verticalAlign=top;fontColor=#330000;" vertex="1" parent="WIyWlLk6GJQsqaUBKTNV-1">
          <mxGeometry x="400" y="230" width="120" height="40" as="geometry" />
        </mxCell>
        <mxCell id="nji6fuR_Czli_-WdUarw-20" value="" style="edgeStyle=orthogonalEdgeStyle;rounded=0;orthogonalLoop=1;jettySize=auto;html=1;fontColor=#330000;" edge="1" parent="WIyWlLk6GJQsqaUBKTNV-1" source="nji6fuR_Czli_-WdUarw-18" target="nji6fuR_Czli_-WdUarw-15">
          <mxGeometry relative="1" as="geometry" />
        </mxCell>
        <mxCell id="nji6fuR_Czli_-WdUarw-24" value="" style="edgeStyle=orthogonalEdgeStyle;rounded=0;orthogonalLoop=1;jettySize=auto;html=1;fontColor=#330000;" edge="1" parent="WIyWlLk6GJQsqaUBKTNV-1" source="nji6fuR_Czli_-WdUarw-18" target="nji6fuR_Czli_-WdUarw-23">
          <mxGeometry relative="1" as="geometry" />
        </mxCell>
        <mxCell id="nji6fuR_Czli_-WdUarw-18" value="But this person has permission for view this window?" style="rhombus;whiteSpace=wrap;html=1;fontColor=#330000;" vertex="1" parent="WIyWlLk6GJQsqaUBKTNV-1">
          <mxGeometry x="200" y="195" width="110" height="110" as="geometry" />
        </mxCell>
        <mxCell id="nji6fuR_Czli_-WdUarw-21" value="Search router..." style="text;html=1;strokeColor=none;fillColor=none;align=center;verticalAlign=middle;whiteSpace=wrap;rounded=0;fontColor=#330000;" vertex="1" parent="WIyWlLk6GJQsqaUBKTNV-1">
          <mxGeometry x="90" y="224" width="90" height="30" as="geometry" />
        </mxCell>
        <mxCell id="nji6fuR_Czli_-WdUarw-22" value="Yes" style="text;html=1;strokeColor=none;fillColor=none;align=center;verticalAlign=middle;whiteSpace=wrap;rounded=0;fontColor=#330000;" vertex="1" parent="WIyWlLk6GJQsqaUBKTNV-1">
          <mxGeometry x="320" y="224" width="60" height="30" as="geometry" />
        </mxCell>
        <mxCell id="nji6fuR_Czli_-WdUarw-23" value="Show window with message of content no avaliables" style="shape=hexagon;perimeter=hexagonPerimeter2;whiteSpace=wrap;html=1;fixedSize=1;fontColor=#330000;" vertex="1" parent="WIyWlLk6GJQsqaUBKTNV-1">
          <mxGeometry x="195" y="400" width="120" height="80" as="geometry" />
        </mxCell>
        <mxCell id="nji6fuR_Czli_-WdUarw-25" value="No" style="text;html=1;strokeColor=none;fillColor=none;align=center;verticalAlign=middle;whiteSpace=wrap;rounded=0;fontColor=#330000;" vertex="1" parent="WIyWlLk6GJQsqaUBKTNV-1">
          <mxGeometry x="240" y="330" width="60" height="30" as="geometry" />
        </mxCell>
        <mxCell id="nji6fuR_Czli_-WdUarw-26" value="" style="endArrow=none;dashed=1;html=1;dashPattern=1 3;strokeWidth=2;rounded=0;fontColor=#330000;" edge="1" parent="WIyWlLk6GJQsqaUBKTNV-1">
          <mxGeometry width="50" height="50" relative="1" as="geometry">
            <mxPoint x="40" y="520" as="sourcePoint" />
            <mxPoint x="800" y="520" as="targetPoint" />
          </mxGeometry>
        </mxCell>
        <mxCell id="nji6fuR_Czli_-WdUarw-29" value="Hello Mr. Santos (Administrator)" style="rounded=1;whiteSpace=wrap;html=1;fontColor=#330000;" vertex="1" parent="WIyWlLk6GJQsqaUBKTNV-1">
          <mxGeometry x="350" y="637" width="190" height="95" as="geometry" />
        </mxCell>
        <mxCell id="nji6fuR_Czli_-WdUarw-30" value="Get alias for the user privilege when show window" style="shape=callout;whiteSpace=wrap;html=1;perimeter=calloutPerimeter;fontColor=#330000;" vertex="1" parent="WIyWlLk6GJQsqaUBKTNV-1">
          <mxGeometry x="410" y="560" width="160" height="70" as="geometry" />
        </mxCell>
        <mxCell id="nji6fuR_Czli_-WdUarw-32" value="&lt;h1 style=&quot;text-align: justify;&quot;&gt;Multiple Privilegies&lt;/h1&gt;&lt;p style=&quot;text-align: justify;&quot;&gt;Users can have multiple privileges on the system, but item one of the list of privileges is used for the alias.&lt;/p&gt;" style="text;html=1;strokeColor=none;fillColor=none;spacing=5;spacingTop=-20;whiteSpace=wrap;overflow=hidden;rounded=0;fontColor=#330000;" vertex="1" parent="WIyWlLk6GJQsqaUBKTNV-1">
          <mxGeometry x="561" y="624.5" width="245" height="120" as="geometry" />
        </mxCell>
        <mxCell id="nji6fuR_Czli_-WdUarw-36" value="Administrator" style="shape=cube;whiteSpace=wrap;html=1;boundedLbl=1;backgroundOutline=1;darkOpacity=0.05;darkOpacity2=0.1;fontColor=#330000;" vertex="1" parent="WIyWlLk6GJQsqaUBKTNV-1">
          <mxGeometry x="25" y="860" width="120" height="80" as="geometry" />
        </mxCell>
        <mxCell id="nji6fuR_Czli_-WdUarw-37" value="Any other" style="shape=cube;whiteSpace=wrap;html=1;boundedLbl=1;backgroundOutline=1;darkOpacity=0.05;darkOpacity2=0.1;fontColor=#330000;" vertex="1" parent="WIyWlLk6GJQsqaUBKTNV-1">
          <mxGeometry x="30" y="1060" width="120" height="80" as="geometry" />
        </mxCell>
        <mxCell id="nji6fuR_Czli_-WdUarw-38" value="Moderator" style="shape=cube;whiteSpace=wrap;html=1;boundedLbl=1;backgroundOutline=1;darkOpacity=0.05;darkOpacity2=0.1;fontColor=#330000;" vertex="1" parent="WIyWlLk6GJQsqaUBKTNV-1">
          <mxGeometry x="30" y="960" width="120" height="80" as="geometry" />
        </mxCell>
        <mxCell id="nji6fuR_Czli_-WdUarw-39" value="User" style="shape=umlActor;verticalLabelPosition=bottom;verticalAlign=top;html=1;outlineConnect=0;fontColor=#330000;" vertex="1" parent="WIyWlLk6GJQsqaUBKTNV-1">
          <mxGeometry x="70" y="770" width="30" height="60" as="geometry" />
        </mxCell>
        <mxCell id="nji6fuR_Czli_-WdUarw-41" value="&lt;h1 style=&quot;text-align: justify;&quot;&gt;Example of list the privilegies of user&lt;/h1&gt;&lt;p style=&quot;text-align: justify;&quot;&gt;The system managentment the requests of privilegie of user.&lt;/p&gt;" style="text;html=1;strokeColor=none;fillColor=none;spacing=5;spacingTop=-20;whiteSpace=wrap;overflow=hidden;rounded=0;fontColor=#330000;" vertex="1" parent="WIyWlLk6GJQsqaUBKTNV-1">
          <mxGeometry x="145" y="750" width="227" height="110" as="geometry" />
        </mxCell>
        <mxCell id="nji6fuR_Czli_-WdUarw-42" style="edgeStyle=orthogonalEdgeStyle;rounded=0;orthogonalLoop=1;jettySize=auto;html=1;exitX=0;exitY=0.3333333333333333;exitDx=0;exitDy=0;exitPerimeter=0;entryX=0.5;entryY=0.5;entryDx=0;entryDy=0;entryPerimeter=0;fontColor=#330000;" edge="1" parent="WIyWlLk6GJQsqaUBKTNV-1" source="nji6fuR_Czli_-WdUarw-39" target="nji6fuR_Czli_-WdUarw-39">
          <mxGeometry relative="1" as="geometry" />
        </mxCell>
        <mxCell id="nji6fuR_Czli_-WdUarw-46" value="" style="edgeStyle=orthogonalEdgeStyle;rounded=0;orthogonalLoop=1;jettySize=auto;html=1;fontColor=#330000;" edge="1" parent="WIyWlLk6GJQsqaUBKTNV-1" source="nji6fuR_Czli_-WdUarw-44" target="nji6fuR_Czli_-WdUarw-45">
          <mxGeometry relative="1" as="geometry" />
        </mxCell>
        <mxCell id="nji6fuR_Czli_-WdUarw-44" value="Request for get specific window of system" style="ellipse;shape=cloud;whiteSpace=wrap;html=1;fontColor=#330000;" vertex="1" parent="WIyWlLk6GJQsqaUBKTNV-1">
          <mxGeometry x="177" y="870" width="156" height="130" as="geometry" />
        </mxCell>
        <mxCell id="nji6fuR_Czli_-WdUarw-45" value="User has the privilegie for open this window?" style="rhombus;whiteSpace=wrap;html=1;fontColor=#330000;" vertex="1" parent="WIyWlLk6GJQsqaUBKTNV-1">
          <mxGeometry x="425" y="880" width="115" height="110" as="geometry" />
        </mxCell>
        <mxCell id="nji6fuR_Czli_-WdUarw-47" value="Database" style="shape=cylinder3;whiteSpace=wrap;html=1;boundedLbl=1;backgroundOutline=1;size=15;fontColor=#330000;" vertex="1" parent="WIyWlLk6GJQsqaUBKTNV-1">
          <mxGeometry x="746" y="895" width="60" height="80" as="geometry" />
        </mxCell>
        <mxCell id="nji6fuR_Czli_-WdUarw-49" value="Search the privilegie approprieted" style="text;html=1;strokeColor=none;fillColor=none;align=center;verticalAlign=middle;whiteSpace=wrap;rounded=0;fontColor=#330000;" vertex="1" parent="WIyWlLk6GJQsqaUBKTNV-1">
          <mxGeometry x="550" y="908" width="190" height="30" as="geometry" />
        </mxCell>
        <mxCell id="nji6fuR_Czli_-WdUarw-53" value="" style="endArrow=classic;startArrow=classic;html=1;rounded=0;fontColor=#330000;exitX=1;exitY=0.5;exitDx=0;exitDy=0;" edge="1" parent="WIyWlLk6GJQsqaUBKTNV-1" source="nji6fuR_Czli_-WdUarw-45" target="nji6fuR_Czli_-WdUarw-47">
          <mxGeometry width="50" height="50" relative="1" as="geometry">
            <mxPoint x="560" y="960" as="sourcePoint" />
            <mxPoint x="610" y="910" as="targetPoint" />
          </mxGeometry>
        </mxCell>
        <mxCell id="nji6fuR_Czli_-WdUarw-56" value="Show window with content" style="shape=process;whiteSpace=wrap;html=1;backgroundOutline=1;verticalAlign=top;fontColor=#330000;" vertex="1" parent="WIyWlLk6GJQsqaUBKTNV-1">
          <mxGeometry x="570" y="1060" width="120" height="40" as="geometry" />
        </mxCell>
        <mxCell id="nji6fuR_Czli_-WdUarw-57" value="" style="endArrow=classic;html=1;rounded=0;fontColor=#330000;exitX=0.5;exitY=1;exitDx=0;exitDy=0;entryX=0;entryY=0.5;entryDx=0;entryDy=0;" edge="1" parent="WIyWlLk6GJQsqaUBKTNV-1" source="nji6fuR_Czli_-WdUarw-45" target="nji6fuR_Czli_-WdUarw-56">
          <mxGeometry width="50" height="50" relative="1" as="geometry">
            <mxPoint x="510" y="1110" as="sourcePoint" />
            <mxPoint x="480" y="1059" as="targetPoint" />
            <Array as="points">
              <mxPoint x="480" y="1080" />
            </Array>
          </mxGeometry>
        </mxCell>
        <mxCell id="nji6fuR_Czli_-WdUarw-58" value="Yes" style="text;html=1;strokeColor=none;fillColor=none;align=center;verticalAlign=middle;whiteSpace=wrap;rounded=0;fontColor=#330000;" vertex="1" parent="WIyWlLk6GJQsqaUBKTNV-1">
          <mxGeometry x="490" y="1057" width="60" height="30" as="geometry" />
        </mxCell>
        <mxCell id="nji6fuR_Czli_-WdUarw-60" value="Show window with message of content no avaliables" style="shape=hexagon;perimeter=hexagonPerimeter2;whiteSpace=wrap;html=1;fixedSize=1;fontColor=#330000;" vertex="1" parent="WIyWlLk6GJQsqaUBKTNV-1">
          <mxGeometry x="280" y="1040" width="120" height="80" as="geometry" />
        </mxCell>
        <mxCell id="nji6fuR_Czli_-WdUarw-61" value="" style="endArrow=classic;html=1;rounded=0;fontColor=#330000;exitX=0.5;exitY=1;exitDx=0;exitDy=0;entryX=1;entryY=0.5;entryDx=0;entryDy=0;" edge="1" parent="WIyWlLk6GJQsqaUBKTNV-1" source="nji6fuR_Czli_-WdUarw-45" target="nji6fuR_Czli_-WdUarw-60">
          <mxGeometry width="50" height="50" relative="1" as="geometry">
            <mxPoint x="500" y="1130" as="sourcePoint" />
            <mxPoint x="550" y="1080" as="targetPoint" />
            <Array as="points">
              <mxPoint x="480" y="1080" />
            </Array>
          </mxGeometry>
        </mxCell>
        <mxCell id="nji6fuR_Czli_-WdUarw-63" value="No" style="text;html=1;strokeColor=none;fillColor=none;align=center;verticalAlign=middle;whiteSpace=wrap;rounded=0;fontColor=#330000;" vertex="1" parent="WIyWlLk6GJQsqaUBKTNV-1">
          <mxGeometry x="410" y="1057" width="60" height="30" as="geometry" />
        </mxCell>
      </root>
    </mxGraphModel>
  </diagram>
</mxfile>
